# Blender v2.92.0 OBJ File: 'cadeiras.blend'
# www.blender.org
mtllib cadeiras.mtl
o Cube_Cube.001
v -0.220000 2.000675 0.221552
v -0.217088 2.130327 0.205971
v -0.220000 2.000675 -0.221552
v -0.220000 2.130327 -0.221552
v 0.220000 2.000675 0.221552
v 0.217088 2.130327 0.205971
v 0.220000 2.000675 -0.221552
v 0.220000 2.130327 -0.221552
v -0.220000 2.139543 -0.321183
v -0.220000 2.000675 -0.321183
v 0.220000 2.000675 -0.321183
v 0.220000 2.139543 -0.321183
v -0.210231 2.585438 -0.258241
v 0.210231 2.585438 -0.258241
v -0.210231 2.585438 -0.353448
v 0.210231 2.585438 -0.353448
v -0.202727 2.585438 -0.287337
v 0.202727 2.585438 -0.287337
v -0.202727 2.585438 -0.324352
v 0.202727 2.585438 -0.324352
v -0.202727 2.607833 -0.287337
v 0.202727 2.607833 -0.287337
v -0.202727 2.607833 -0.324352
v 0.202727 2.607833 -0.324352
v 0.220000 2.363380 -0.224166
v -0.220000 2.363380 -0.224166
v 0.220000 2.363380 -0.323797
v -0.220000 2.363380 -0.323797
v 0.220000 2.474409 -0.236148
v 0.220000 2.474409 -0.335779
v -0.220000 2.474409 -0.335779
v -0.220000 2.474409 -0.236148
v -0.220000 2.252548 -0.222872
v 0.220000 2.252548 -0.222872
v 0.220000 2.252548 -0.322503
v -0.220000 2.252548 -0.322503
v -0.220000 2.000675 0.121973
v -0.220000 2.130327 0.121973
v 0.220000 2.000675 0.121973
v 0.220000 2.130327 0.121973
v -0.179837 2.000675 -0.221552
v -0.179837 2.139543 -0.221552
v -0.179837 2.000675 0.221552
v -0.179837 2.130327 0.221552
v -0.179837 2.000675 -0.321183
v -0.179837 2.139543 -0.321183
v -0.174013 2.585438 -0.258241
v -0.174013 2.585438 -0.353448
v -0.169540 2.585438 -0.287337
v -0.169540 2.585438 -0.324352
v -0.169540 2.607833 -0.287337
v -0.169540 2.607833 -0.324352
v -0.179837 2.363380 -0.323797
v -0.179837 2.363380 -0.224166
v -0.179837 2.474409 -0.335779
v -0.179837 2.474409 -0.236148
v -0.179837 2.252548 -0.222872
v -0.179837 2.252548 -0.322503
v -0.179837 2.139543 0.121973
v -0.179837 2.000675 0.121973
v 0.179847 2.139543 -0.221552
v 0.179847 2.000675 0.221552
v 0.179847 2.139543 -0.321183
v 0.171654 2.585438 -0.258241
v 0.171654 2.585438 -0.353448
v 0.165362 2.585438 -0.287337
v 0.165362 2.585438 -0.324352
v 0.165362 2.607833 -0.287337
v 0.165362 2.607833 -0.324352
v 0.179847 2.363380 -0.323797
v 0.179847 2.474409 -0.335779
v 0.179847 2.252548 -0.322503
v 0.179847 2.139543 0.121973
v 0.179847 2.000675 -0.221552
v 0.179847 2.130327 0.221552
v 0.179847 2.000675 -0.321183
v 0.179847 2.363380 -0.224166
v 0.179847 2.474409 -0.236148
v 0.179847 2.252548 -0.222872
v 0.179847 2.000675 0.121973
v -0.220000 1.657833 0.121973
v -0.220000 1.657833 0.221552
v -0.179837 1.657833 -0.221552
v -0.220000 1.657833 -0.221552
v 0.179847 1.657833 0.221552
v 0.220000 1.657833 0.221552
v -0.179837 1.657833 -0.321183
v -0.220000 1.657833 -0.321183
v 0.220000 1.657833 -0.221552
v 0.220000 1.657833 -0.321183
v 0.220000 1.657833 0.121973
v -0.179837 1.657833 0.121973
v -0.179837 1.657833 0.221552
v 0.179847 1.657833 -0.221552
v 0.179847 1.657833 -0.321183
v 0.179847 1.657833 0.121973
vt 0.220568 0.630819
vt 0.219049 0.491346
vt 0.334864 0.490083
vt 0.336384 0.629556
vt 0.686420 0.119551
vt 0.672786 0.119551
vt 0.676104 0.000000
vt 0.689202 0.000000
vt 0.033572 0.369181
vt 0.032052 0.508654
vt 0.003732 0.508348
vt 0.000000 0.368815
vt 0.659150 0.139547
vt 0.659150 0.000083
vt 0.671798 0.000000
vt 0.672786 0.139547
vt 0.808547 0.605504
vt 0.822183 0.605859
vt 0.821195 0.634162
vt 0.808547 0.639412
vt 0.387626 0.368810
vt 0.387626 0.518196
vt 0.373993 0.518196
vt 0.373993 0.368810
vt 0.368346 0.479803
vt 0.369974 0.629190
vt 0.147868 0.509916
vt 0.149388 0.370444
vt 0.182977 0.370810
vt 0.181350 0.520197
vt 0.672786 0.639412
vt 0.704866 0.639412
vt 0.695062 0.641959
vt 0.682590 0.641959
vt 0.148756 0.880119
vt 0.182345 0.880486
vt 0.186996 1.000000
vt 0.154898 0.999650
vt 0.509753 0.878486
vt 0.523389 0.878486
vt 0.520072 0.997999
vt 0.507775 0.997999
vt 0.369342 0.119514
vt 0.335752 0.119881
vt 0.341895 0.000350
vt 0.373993 0.000000
vt 0.672786 0.651709
vt 0.682590 0.653228
vt 0.704866 0.782174
vt 0.672786 0.782174
vt 0.682590 0.779627
vt 0.695062 0.779627
vt 0.704866 0.769076
vt 0.695062 0.766940
vt 0.367466 0.358231
vt 0.333877 0.358597
vt 0.333014 0.239365
vt 0.366604 0.238999
vt 0.509753 0.639766
vt 0.523389 0.639766
vt 0.523389 0.758997
vt 0.509753 0.758997
vt 0.146880 0.641403
vt 0.180470 0.641769
vt 0.179607 0.761001
vt 0.146018 0.760635
vt 0.686420 0.358275
vt 0.672786 0.358275
vt 0.672786 0.239048
vt 0.686420 0.239048
vt 0.686420 0.479841
vt 0.672786 0.489756
vt 0.509753 0.518196
vt 0.523390 0.518196
vt 0.808547 0.489755
vt 0.822183 0.490111
vt 0.659153 0.541931
vt 0.672786 0.541931
vt 0.672786 0.657754
vt 0.659153 0.657754
vt 0.186996 0.631185
vt 0.190728 0.491652
vt 0.523390 0.541931
vt 0.537026 0.541931
vt 0.537026 0.657754
vt 0.523390 0.657754
vt 0.686420 0.489755
vt 0.686420 0.605504
vt 0.387626 0.639766
vt 0.822183 0.489756
vt 0.808547 0.479841
vt 0.808547 0.358275
vt 0.822183 0.358275
vt 0.822183 0.239048
vt 0.808547 0.239048
vt 0.808547 0.119551
vt 0.822183 0.119551
vt 0.387626 0.758997
vt 0.387626 0.878486
vt 0.704866 0.651709
vt 0.695062 0.653228
vt 0.672786 0.769076
vt 0.682590 0.766940
vt 0.390408 0.997999
vt 0.537026 0.508340
vt 0.659153 0.508340
vt 0.523390 0.368810
vt 0.509753 0.368810
vt 0.686420 0.639412
vt 0.537023 0.139547
vt 0.537023 0.000083
vt 0.806569 0.000000
vt 0.818866 0.000000
vt 0.523390 0.139547
vt 0.524378 0.000000
vt 0.672786 0.605859
vt 0.673775 0.634162
vt 0.373993 0.878486
vt 0.377310 0.997999
vt 0.373993 0.639766
vt 0.373993 0.758997
vt 0.672786 0.490111
vt 0.659153 0.691328
vt 0.537026 0.691328
vt 0.004019 0.000000
vt 0.037591 0.000366
vt 0.916619 0.737602
vt 0.902986 0.737602
vt 0.902986 0.368810
vt 0.916619 0.368810
vt 0.602890 0.715421
vt 0.590410 0.715421
vt 0.590410 0.691329
vt 0.602890 0.691329
vt 0.753046 0.652098
vt 0.753046 0.639412
vt 0.765518 0.639412
vt 0.765518 0.652098
vt 0.728957 0.765810
vt 0.728957 0.777079
vt 0.704866 0.777079
vt 0.704866 0.765810
vt 0.577930 0.691328
vt 0.590410 0.691328
vt 0.590410 0.715420
vt 0.577930 0.715420
vt 0.753046 0.764392
vt 0.753046 0.777079
vt 0.728956 0.777079
vt 0.728956 0.764392
vt 0.753046 0.639412
vt 0.753046 0.650680
vt 0.728956 0.650680
vt 0.728956 0.639412
vt 0.728957 0.652098
vt 0.704866 0.652098
vt 0.753046 0.777079
vt 0.753046 0.765810
vt 0.765518 0.765810
vt 0.765518 0.777079
vt 0.373993 0.998005
vt 0.340403 0.998372
vt 0.537023 0.508340
vt 0.523390 0.508340
vt 0.728957 0.639412
vt 0.704866 0.639412
vt 0.564297 0.691328
vt 0.577930 0.691328
vt 0.577930 0.724902
vt 0.564297 0.724902
vt 0.537026 0.724920
vt 0.523390 0.724920
vt 0.523390 0.691328
vt 0.537026 0.691328
vt 0.550660 0.691328
vt 0.564297 0.691328
vt 0.564297 0.724902
vt 0.550660 0.724902
vt 0.550660 0.724920
vt 0.537026 0.724920
vt 0.537026 0.691328
vt 0.550660 0.691328
vt 0.902986 0.737602
vt 0.889349 0.737602
vt 0.889349 0.368810
vt 0.902986 0.368810
vt 0.672786 0.508340
vt 0.659150 0.508340
vt 0.153407 0.001628
vt 0.186996 0.001995
vt 0.822183 0.368837
vt 0.855775 0.368837
vt 0.855775 0.737674
vt 0.822183 0.737675
vt 0.373993 0.000000
vt 0.387626 0.000000
vt 0.509753 0.000000
vt 0.523390 0.000000
vt 0.855775 0.368837
vt 0.889349 0.368837
vt 0.889349 0.737674
vt 0.855775 0.737675
vt 0.855775 0.368837
vt 0.822183 0.368837
vt 0.822183 0.000000
vt 0.855775 0.000000
vt 0.902986 0.368810
vt 0.889349 0.368810
vt 0.889349 0.000000
vt 0.902986 0.000000
vt 0.224587 0.999634
vt 0.191015 1.000000
vt 0.916619 0.368810
vt 0.902986 0.368810
vt 0.902986 0.000000
vt 0.916619 0.000000
vt 0.855775 0.368837
vt 0.855775 0.000000
vn -1.0000 0.0000 0.0000
vn 0.0000 0.1952 0.9808
vn 0.9998 0.0122 0.0159
vn -0.1969 0.0610 0.9785
vn -0.1283 0.9904 0.0518
vn 0.0000 0.0000 -1.0000
vn 1.0000 0.0000 0.0000
vn 0.0000 1.0000 0.0000
vn 0.9962 0.0877 0.0000
vn 0.0000 -0.1572 -0.9876
vn -0.9962 0.0877 0.0000
vn 0.0000 -0.0117 -0.9999
vn 0.0000 0.0117 0.9999
vn 0.0000 -0.1073 -0.9942
vn 0.0000 0.1073 0.9942
vn 0.0013 0.0112 0.9999
vn -0.2237 0.9747 0.0000
vn 0.0000 -1.0000 0.0000
vn -0.9998 0.0122 0.0159
vn -0.0013 0.0112 0.9999
vn 0.0000 0.9957 0.0922
vn 0.0000 0.0000 1.0000
vn 0.1970 0.0610 0.9785
vn 0.1284 0.9904 0.0518
vn 0.2237 0.9747 0.0000
usemtl estofado
s off
f 37/1/1 38/2/1 4/3/1 3/4/1
f 78/5/2 29/6/2 14/7/2 64/8/2
f 39/9/3 40/10/3 6/11/3 5/12/3
f 43/13/4 44/14/4 2/15/4 1/16/4
f 59/17/5 38/18/5 2/19/5 44/20/5
f 76/21/6 63/22/6 12/23/6 11/24/6
f 3/4/1 4/3/1 9/25/1 10/26/1
f 8/27/7 7/28/7 11/29/7 12/30/7
f 15/31/8 13/32/8 17/33/8 19/34/8
f 29/35/9 30/36/9 16/37/9 14/38/9
f 55/39/10 31/40/10 15/41/10 48/42/10
f 31/43/11 32/44/11 13/45/11 15/46/11
f 48/47/8 15/31/8 19/34/8 50/48/8
f 14/49/8 16/50/8 20/51/8 18/52/8
f 64/53/8 14/49/8 18/52/8 66/54/8
f 36/55/1 33/56/1 26/57/1 28/58/1
f 58/59/12 36/60/12 28/61/12 53/62/12
f 34/63/7 35/64/7 27/65/7 25/66/7
f 79/67/13 34/68/13 25/69/13 77/70/13
f 28/58/1 26/57/1 32/44/1 31/43/1
f 53/62/14 28/61/14 31/40/14 55/39/14
f 25/66/7 27/65/7 30/36/7 29/35/7
f 77/70/15 25/69/15 29/6/15 78/5/15
f 61/71/16 8/72/16 34/68/16 79/67/16
f 8/27/7 12/30/7 35/64/7 34/63/7
f 46/73/12 9/74/12 36/60/12 58/59/12
f 9/25/1 4/3/1 33/56/1 36/55/1
f 42/75/17 4/76/17 38/18/17 59/17/17
f 74/77/18 7/78/18 39/79/18 80/80/18
f 7/28/7 8/27/7 40/10/7 39/9/7
f 1/81/19 2/82/19 38/2/19 37/1/19
f 3/83/18 41/84/18 60/85/18 37/86/18
f 61/87/8 42/75/8 59/17/8 73/88/8
f 63/22/12 46/73/12 58/59/12 72/89/12
f 4/90/20 42/91/20 57/92/20 33/93/20
f 26/94/15 54/95/15 56/96/15 32/97/15
f 70/98/14 53/62/14 55/39/14 71/99/14
f 33/93/13 57/92/13 54/95/13 26/94/13
f 72/89/12 58/59/12 53/62/12 70/98/12
f 13/32/8 47/100/8 49/101/8 17/33/8
f 65/102/8 48/47/8 50/48/8 67/103/8
f 71/99/10 55/39/10 48/42/10 65/104/10
f 74/77/18 41/84/18 45/105/18 76/106/18
f 10/107/6 9/74/6 46/73/6 45/108/6
f 73/88/21 59/17/21 44/20/21 75/109/21
f 62/110/22 75/111/22 44/14/22 43/13/22
f 32/97/2 56/96/2 47/112/2 13/113/2
f 5/114/23 6/115/23 75/111/23 62/110/23
f 40/116/24 73/88/24 75/109/24 6/117/24
f 30/118/10 71/99/10 65/104/10 16/119/10
f 16/50/8 65/102/8 67/103/8 20/51/8
f 35/120/12 72/89/12 70/98/12 27/121/12
f 27/121/14 70/98/14 71/99/14 30/118/14
f 12/23/12 63/22/12 72/89/12 35/120/12
f 8/122/25 61/87/25 73/88/25 40/116/25
f 41/84/18 74/77/18 80/80/18 60/85/18
f 42/91/13 61/71/13 79/67/13 57/92/13
f 54/95/15 77/70/15 78/5/15 56/96/15
f 57/92/13 79/67/13 77/70/13 54/95/13
f 47/100/8 64/53/8 66/54/8 49/101/8
f 45/108/6 46/73/6 63/22/6 76/21/6
f 60/85/18 80/80/18 62/123/18 43/124/18
f 56/96/2 78/5/2 64/8/2 47/112/2
usemtl madeira
f 39/9/7 5/12/7 86/125/7 91/126/7
f 7/127/22 74/128/22 94/129/22 89/130/22
f 19/131/1 17/132/1 21/133/1 23/134/1
f 68/135/8 22/136/8 24/137/8 69/138/8
f 50/139/6 19/140/6 23/141/6 52/142/6
f 18/143/7 20/144/7 24/145/7 22/146/7
f 66/147/22 18/148/22 22/149/22 68/150/22
f 17/151/22 49/152/22 51/153/22 21/154/22
f 67/155/6 50/139/6 52/142/6 69/156/6
f 21/157/8 51/158/8 52/159/8 23/160/8
f 3/4/1 10/26/1 88/161/1 84/162/1
f 5/114/22 62/110/22 85/163/22 86/164/22
f 20/165/6 67/155/6 69/156/6 24/166/6
f 49/152/22 66/147/22 68/150/22 51/153/22
f 51/158/8 68/135/8 69/138/8 52/159/8
f 96/167/18 91/168/18 86/169/18 85/170/18
f 83/171/18 84/172/18 88/173/18 87/174/18
f 81/175/18 92/176/18 93/177/18 82/178/18
f 89/179/18 94/180/18 95/181/18 90/182/18
f 41/183/22 3/184/22 84/185/22 83/186/22
f 43/13/22 1/16/22 82/187/22 93/188/22
f 11/29/7 7/28/7 89/189/7 90/190/7
f 74/191/1 76/192/1 95/193/1 94/194/1
f 76/21/6 11/24/6 90/195/6 95/196/6
f 10/107/6 45/108/6 87/197/6 88/198/6
f 62/199/1 80/200/1 96/201/1 85/202/1
f 45/203/7 41/204/7 83/205/7 87/206/7
f 37/207/6 60/208/6 92/209/6 81/210/6
f 1/81/1 37/1/1 81/211/1 82/212/1
f 80/213/6 39/214/6 91/215/6 96/216/6
f 60/208/7 43/217/7 93/218/7 92/209/7
