# Blender v2.92.0 OBJ File: 'Lareira.blend'
# www.blender.org
mtllib Lareira.mtl
o Cube_Cube.002
v -1.000000 -1.000000 1.308404
v -1.000000 1.000000 1.308404
v -1.000000 -1.000000 -1.308404
v -1.000000 1.000000 -1.308404
v 1.000000 -1.000000 1.308404
v 1.000000 1.000000 1.308404
v 1.000000 -1.000000 -1.308404
v 1.000000 1.000000 -1.308404
v -1.000000 -1.000000 -1.038023
v -1.000000 -1.000000 -0.261681
v -1.000000 -1.000000 0.261681
v -1.000000 -1.000000 1.063642
v -1.000000 1.000000 1.063642
v -1.000000 1.000000 0.261681
v -1.000000 1.000000 -0.261681
v -1.000000 1.000000 -1.038023
v 1.000000 -1.000000 1.063642
v 1.000000 -1.000000 0.261681
v 1.000000 -1.000000 -0.261681
v 1.000000 -1.000000 -1.038023
v 1.000000 1.000000 -1.038023
v 1.000000 1.000000 -0.261681
v 1.000000 1.000000 0.261681
v 1.000000 1.000000 1.063642
v 0.600000 -1.000000 -1.308404
v 0.200000 -1.000000 -1.308404
v -0.200000 -1.000000 -1.308404
v -0.600000 -1.000000 -1.308404
v -0.600000 1.000000 -1.308404
v -0.200000 1.000000 -1.308404
v 0.200000 1.000000 -1.308404
v 0.600000 1.000000 -1.308404
v -0.600000 -1.000000 1.308404
v -0.200000 -1.000000 1.308404
v 0.200000 -1.000000 1.308404
v 0.600000 -1.000000 1.308404
v 0.600000 1.000000 1.308404
v 0.200000 1.000000 1.308404
v -0.200000 1.000000 1.308404
v -0.600000 1.000000 1.308404
v -0.600000 1.000000 -1.038023
v -0.200000 1.000000 -1.038023
v 0.200000 1.000000 -1.038023
v 0.600000 1.000000 -1.038023
v -0.600000 1.000000 -0.261681
v -0.200000 1.000000 -0.261681
v -0.600000 1.000000 0.261681
v -0.200000 1.000000 0.261681
v -0.600000 1.000000 1.063642
v -0.200000 1.000000 1.063642
v 0.200000 1.000000 1.063642
v 0.600000 1.000000 1.063642
v 0.600000 -1.000000 -1.038023
v 0.200000 -1.000000 -1.038023
v -0.200000 -1.000000 -1.038023
v -0.600000 -1.000000 -1.038023
v 0.600000 -1.000000 -0.261681
v 0.200000 -1.000000 -0.261681
v -0.200000 -1.000000 -0.261681
v -0.600000 -1.000000 -0.261681
v 0.600000 -1.000000 0.261681
v 0.200000 -1.000000 0.261681
v -0.200000 -1.000000 0.261681
v -0.600000 -1.000000 0.261681
v 0.600000 -1.000000 1.063642
v 0.200000 -1.000000 1.063642
v -0.200000 -1.000000 1.063642
v -0.600000 -1.000000 1.063642
v -1.000000 -0.843974 1.308404
v -1.000000 -0.200000 1.308404
v -1.000000 0.200000 1.308404
v -1.000000 0.827825 1.308404
v -1.000000 0.827825 -1.308404
v -1.000000 0.200000 -1.308404
v -1.000000 -0.200000 -1.308404
v -1.000000 -0.843974 -1.308404
v 1.000000 0.827825 -1.308404
v 1.000000 0.200000 -1.308404
v 1.000000 -0.200000 -1.308404
v 1.000000 -0.843974 -1.308404
v 1.000000 0.827825 1.308404
v 1.000000 0.200000 1.308404
v 1.000000 -0.200000 1.308404
v 1.000000 -0.843974 1.308404
v 1.000000 0.827825 -1.038023
v 1.000000 0.200000 -1.038023
v 1.000000 -0.200000 -1.038023
v 1.000000 -0.843974 -1.038023
v 1.000000 0.827825 -0.261681
v 1.000000 0.200000 -0.261681
v 1.000000 -0.200000 -0.261681
v 1.000000 -0.843974 -0.261681
v 1.000000 0.827825 0.261681
v 1.000000 0.200000 0.261681
v 1.000000 -0.200000 0.261681
v 1.000000 -0.843974 0.261681
v 1.000000 0.827825 1.063642
v 1.000000 0.200000 1.063642
v 1.000000 -0.200000 1.063642
v 1.000000 -0.843974 1.063642
v -1.000000 0.827825 1.063642
v -1.000000 0.200000 1.063642
v -1.000000 -0.200000 1.063642
v -1.000000 -0.843974 1.063642
v -1.000000 0.827825 0.261681
v -1.000000 -0.843974 0.261681
v -1.000000 0.827825 -0.261681
v -1.000000 -0.843974 -0.261681
v -1.000000 0.827825 -1.038023
v -1.000000 0.200000 -1.038023
v -1.000000 -0.200000 -1.038023
v -1.000000 -0.843974 -1.038023
v 0.600000 0.827825 1.308404
v 0.600000 0.200000 1.308404
v 0.600000 -0.200000 1.308404
v 0.600000 -0.843974 1.308404
v 0.200000 0.827825 1.308404
v 0.200000 0.200000 1.308404
v 0.200000 -0.200000 1.308404
v 0.200000 -0.843974 1.308404
v -0.200000 0.827825 1.308404
v -0.200000 0.200000 1.308404
v -0.200000 -0.200000 1.308404
v -0.200000 -0.843974 1.308404
v -0.600000 0.827825 1.308404
v -0.600000 0.200000 1.308404
v -0.600000 -0.200000 1.308404
v -0.600000 -0.843974 1.308404
v -0.600000 0.827825 -1.308404
v -0.600000 0.200000 -1.308404
v -0.600000 -0.200000 -1.308404
v -0.600000 -0.843974 -1.308404
v -0.200000 0.827825 -1.308404
v -0.200000 0.200000 -1.308404
v -0.200000 -0.200000 -1.308404
v -0.200000 -0.843974 -1.308404
v 0.200000 0.827825 -1.308404
v 0.200000 0.200000 -1.308404
v 0.200000 -0.200000 -1.308404
v 0.200000 -0.843974 -1.308404
v 0.600000 0.827825 -1.308404
v 0.600000 0.200000 -1.308404
v 0.600000 -0.200000 -1.308404
v 0.600000 -0.843974 -1.308404
v 0.986764 0.827825 1.063642
v 0.986764 0.200000 1.063642
v 0.986764 -0.200000 1.063642
v 0.986764 -0.843974 1.063642
v 0.986764 0.827825 0.261681
v 0.986764 0.200000 0.261681
v 0.986764 -0.200000 0.261681
v 0.986764 -0.843974 0.261681
v 0.986764 0.827825 -0.261681
v 0.986764 0.200000 -0.261681
v 0.986764 -0.200000 -0.261681
v 0.986764 -0.843974 -0.261681
v 0.986764 0.827825 -1.038023
v 0.986764 0.200000 -1.038023
v 0.986764 -0.200000 -1.038023
v 0.986764 -0.843974 -1.038023
v 0.009304 0.827825 0.704158
v 0.009304 1.000000 0.704158
v 0.009304 1.000000 0.261681
v 0.009304 0.827825 0.261681
v 0.009304 0.827825 -0.261681
v 0.009304 1.000000 -0.261681
v 0.009304 0.827825 -0.704158
v 0.009304 1.000000 -0.704158
v 0.200000 1.000000 -0.704158
v 0.600000 1.000000 -0.704158
v 0.739519 0.827825 -0.704158
v 0.739519 1.000000 -0.704158
v 0.739519 0.827825 -0.261681
v 0.739519 1.000000 -0.261681
v 0.739519 1.000000 0.704158
v 0.739519 0.827825 0.704158
v 0.739519 1.000000 0.261681
v 0.739519 0.827825 0.261681
v 0.600000 1.000000 0.704158
v 0.200000 1.000000 0.704158
v -1.338209 0.852009 0.942276
v -1.338209 0.975816 0.942276
v -1.338209 0.975816 -0.744974
v -1.338209 0.975816 -0.939397
v -1.338209 0.975816 0.766275
v -1.338209 0.975816 0.189607
v -1.338209 0.975816 -0.186728
v -1.338209 0.852009 -0.939397
v -1.338209 0.852009 0.766275
v -1.338209 0.852009 0.189607
v -1.338209 0.852009 -0.186728
v -1.338209 0.852009 -0.744974
v 0.628219 3.907626 -0.400444
v 0.628219 3.907626 -0.099240
v 0.628219 3.907626 0.103813
v 0.628219 3.907626 0.414957
v 0.473028 3.907626 -0.400444
v 0.473028 3.907626 0.414957
v 0.162645 3.907626 -0.400444
v 0.317837 3.907626 -0.400444
v 0.162645 3.907626 0.414957
v 0.317837 3.907626 0.414957
v 0.162645 3.907626 0.103813
v 0.162645 3.907626 -0.099240
v 0.243851 3.907626 -0.270912
v 0.243851 3.907626 -0.099240
v 0.243851 3.907626 0.103813
v 0.243851 3.907626 0.275485
v 0.527158 3.907626 -0.270912
v 0.473028 3.907626 -0.270912
v 0.317837 3.907626 -0.270912
v 0.527158 3.907626 0.103813
v 0.527158 3.907626 -0.099240
v 0.527158 3.907626 0.275485
v 0.317837 3.907626 0.275485
v 0.473028 3.907626 0.275485
vt 0.424808 0.716586
vt 0.424808 0.734842
vt 0.382394 0.734842
vt 0.382394 0.716586
vt 0.190159 0.716586
vt 0.190159 0.734842
vt 0.170323 0.734842
vt 0.170323 0.716586
vt 0.212737 0.504515
vt 0.212737 0.522771
vt 0.170323 0.522771
vt 0.170323 0.504515
vt 0.510302 0.192235
vt 0.552717 0.192235
vt 0.552717 0.212071
vt 0.510302 0.212071
vt 0.552051 0.502935
vt 0.594465 0.502935
vt 0.594465 0.522771
vt 0.552051 0.522771
vt 0.552051 0.310700
vt 0.594465 0.310700
vt 0.594465 0.332613
vt 0.552051 0.332613
vt 0.594465 0.395529
vt 0.552051 0.395529
vt 0.594465 0.437943
vt 0.552051 0.437943
vt 0.510302 0.000000
vt 0.552717 0.000000
vt 0.552717 0.021912
vt 0.510302 0.021912
vt 0.552717 0.084828
vt 0.510302 0.084828
vt 0.552717 0.127243
vt 0.510302 0.127243
vt 0.360482 0.734843
vt 0.360482 0.716586
vt 0.297565 0.734842
vt 0.297565 0.716586
vt 0.255151 0.734842
vt 0.255151 0.716586
vt 0.340646 0.127243
vt 0.383060 0.127243
vt 0.383060 0.192235
vt 0.340646 0.192235
vt 0.425474 0.127243
vt 0.425474 0.192235
vt 0.467888 0.127243
vt 0.467888 0.192235
vt 0.340646 0.084828
vt 0.383060 0.084828
vt 0.425474 0.084828
vt 0.467888 0.084828
vt 0.340646 0.021912
vt 0.383060 0.021912
vt 0.425474 0.021912
vt 0.467888 0.021912
vt 0.340646 0.000000
vt 0.383060 0.000000
vt 0.425474 0.000000
vt 0.467888 0.000000
vt 0.509636 0.437943
vt 0.509636 0.502935
vt 0.509636 0.395529
vt 0.509636 0.332613
vt 0.382394 0.310700
vt 0.424808 0.310700
vt 0.424808 0.332613
vt 0.382394 0.332613
vt 0.467222 0.310700
vt 0.467222 0.332613
vt 0.509636 0.310700
vt 0.382394 0.502935
vt 0.424808 0.502935
vt 0.424808 0.522771
vt 0.382394 0.522771
vt 0.467222 0.502935
vt 0.467222 0.522771
vt 0.509636 0.522771
vt 0.383060 0.212071
vt 0.340646 0.212071
vt 0.425474 0.212071
vt 0.467888 0.212071
vt 0.382394 0.504515
vt 0.339980 0.522771
vt 0.339980 0.504515
vt 0.297565 0.522771
vt 0.297565 0.504515
vt 0.255151 0.522771
vt 0.255151 0.504515
vt 0.594465 0.716586
vt 0.594465 0.734843
vt 0.552051 0.734842
vt 0.552051 0.716586
vt 0.509636 0.734842
vt 0.509636 0.716586
vt 0.467222 0.734842
vt 0.467222 0.716586
vt 0.467222 0.522771
vt 0.467222 0.539316
vt 0.424808 0.539316
vt 0.424808 0.522771
vt 0.467222 0.607600
vt 0.424808 0.607600
vt 0.467222 0.650014
vt 0.424808 0.650014
vt 0.509636 0.522771
vt 0.509636 0.539316
vt 0.509636 0.607600
vt 0.509636 0.650014
vt 0.552051 0.522771
vt 0.552051 0.539316
vt 0.552051 0.607600
vt 0.552051 0.650014
vt 0.594465 0.522771
vt 0.594465 0.539316
vt 0.594465 0.607600
vt 0.594465 0.650014
vt 0.255151 0.310700
vt 0.255151 0.327245
vt 0.212737 0.327245
vt 0.212737 0.310700
vt 0.255151 0.395529
vt 0.212737 0.395529
vt 0.255151 0.437943
vt 0.212737 0.437943
vt 0.297565 0.310700
vt 0.297565 0.327245
vt 0.297565 0.395529
vt 0.297565 0.437943
vt 0.339980 0.310700
vt 0.339980 0.327245
vt 0.339980 0.395529
vt 0.339980 0.437943
vt 0.382394 0.310700
vt 0.382394 0.327245
vt 0.382394 0.395529
vt 0.382394 0.437943
vt 0.746531 0.084828
vt 0.729987 0.084828
vt 0.729987 0.021912
vt 0.746531 0.021912
vt 0.000000 0.623583
vt 0.062916 0.623583
vt 0.062916 0.834251
vt 0.000000 0.834251
vt 0.746531 0.127243
vt 0.729987 0.127243
vt 0.662749 0.833979
vt 0.594465 0.833979
vt 0.594465 0.623312
vt 0.662749 0.623312
vt 0.832406 0.310700
vt 0.898978 0.310700
vt 0.898978 0.521368
vt 0.832406 0.521368
vt 0.705163 0.833979
vt 0.705163 0.623312
vt 0.746531 0.192235
vt 0.729987 0.192235
vt 0.721708 0.310700
vt 0.789992 0.310700
vt 0.789992 0.521368
vt 0.721708 0.521368
vt 0.105330 0.623583
vt 0.170323 0.623583
vt 0.170323 0.834251
vt 0.105330 0.834251
vt 0.771735 0.833979
vt 0.771735 0.623312
vt 0.746531 0.212071
vt 0.729987 0.212071
vt 0.661703 0.212071
vt 0.661703 0.192235
vt 0.619289 0.212071
vt 0.619289 0.192235
vt 0.552717 0.212071
vt 0.552717 0.192235
vt 0.255151 0.522771
vt 0.255151 0.539316
vt 0.190159 0.539316
vt 0.190159 0.522771
vt 0.255151 0.607600
vt 0.190159 0.607600
vt 0.255151 0.650014
vt 0.190159 0.650014
vt 0.297565 0.522771
vt 0.297565 0.539316
vt 0.297565 0.607600
vt 0.297565 0.650014
vt 0.360482 0.522771
vt 0.360482 0.539316
vt 0.360482 0.607600
vt 0.360482 0.650014
vt 0.382394 0.522771
vt 0.382394 0.539316
vt 0.382394 0.607600
vt 0.382394 0.650014
vt 0.170323 0.327245
vt 0.170323 0.310700
vt 0.170323 0.395529
vt 0.170323 0.437943
vt 0.170323 0.539316
vt 0.170323 0.522771
vt 0.170323 0.607600
vt 0.170323 0.650014
vt 0.729987 0.000000
vt 0.746531 0.000000
vt 0.661703 0.021912
vt 0.661703 0.000000
vt 0.619289 0.021912
vt 0.619289 0.000000
vt 0.552717 0.021912
vt 0.552717 0.000000
vt 0.233239 0.734842
vt 0.233239 0.803127
vt 0.170323 0.803127
vt 0.170323 0.734842
vt 0.233239 0.845541
vt 0.170323 0.845541
vt 0.233239 0.912112
vt 0.170323 0.912112
vt 0.275653 0.734842
vt 0.275653 0.803127
vt 0.275653 0.845541
vt 0.275653 0.912112
vt 0.340646 0.734842
vt 0.340646 0.803127
vt 0.340646 0.845541
vt 0.340646 0.912112
vt 0.418907 0.813116
vt 0.418907 0.848975
vt 0.400651 0.848975
vt 0.400651 0.813116
vt 0.400651 0.770702
vt 0.400651 0.734843
vt 0.418907 0.734843
vt 0.418907 0.770702
vt 0.408270 0.289500
vt 0.390013 0.289500
vt 0.390013 0.274706
vt 0.390013 0.232292
vt 0.390013 0.212071
vt 0.408270 0.212071
vt 0.382394 0.813116
vt 0.382394 0.770702
vt 0.382394 0.734843
vt 0.400651 0.734843
vt 0.400651 0.770702
vt 0.400651 0.813116
vt 0.400651 0.848975
vt 0.382394 0.848975
vt 0.426526 0.289500
vt 0.408270 0.289500
vt 0.408270 0.269279
vt 0.408270 0.226865
vt 0.408270 0.212071
vt 0.426526 0.212071
vt 0.898977 0.310700
vt 0.919198 0.310700
vt 0.931693 0.621005
vt 0.923848 0.621005
vt 0.170323 0.000000
vt 0.233239 0.000000
vt 0.246404 0.310700
vt 0.221993 0.310700
vt 0.042414 0.310822
vt 0.084828 0.310822
vt 0.071365 0.623583
vt 0.054909 0.623583
vt 0.807594 0.623312
vt 0.850008 0.623312
vt 0.836844 0.932625
vt 0.820388 0.932625
vt 0.636879 0.310700
vt 0.679293 0.310700
vt 0.666798 0.623312
vt 0.650343 0.623312
vt 0.961612 0.310700
vt 0.948149 0.621005
vt 0.000000 0.310822
vt 0.038453 0.623583
vt 0.885867 0.623312
vt 0.850756 0.932625
vt 0.851861 0.103645
vt 0.851861 0.210667
vt 0.809447 0.210667
vt 0.809447 0.103645
vt 0.809447 0.026217
vt 0.809447 0.000000
vt 0.851861 0.000000
vt 0.851861 0.026217
vt 0.746531 0.210667
vt 0.746531 0.000000
vt 0.773588 0.026217
vt 0.773588 0.103645
vt 0.916854 0.000000
vt 0.916854 0.210667
vt 0.887721 0.103645
vt 0.887721 0.026217
vt 0.357101 0.266850
vt 0.357101 0.278153
vt 0.340646 0.278153
vt 0.340646 0.252937
vt 0.351362 0.252937
vt 0.351362 0.266850
vt 0.373557 0.266850
vt 0.373557 0.278153
vt 0.390013 0.252937
vt 0.390013 0.278153
vt 0.381402 0.266850
vt 0.381402 0.252937
vt 0.340646 0.236481
vt 0.351362 0.236481
vt 0.390013 0.236481
vt 0.381402 0.236481
vt 0.351362 0.222569
vt 0.340646 0.212071
vt 0.357101 0.212071
vt 0.357101 0.222569
vt 0.373557 0.212071
vt 0.373557 0.222569
vt 0.390013 0.212071
vt 0.381402 0.222569
vt 0.107407 0.000000
vt 0.170323 0.000000
vt 0.118652 0.310822
vt 0.094242 0.310822
vt 0.771735 0.623312
vt 0.806475 0.932625
vt 0.964141 0.623312
vt 1.000000 0.623312
vt 0.965260 0.932445
vt 0.951347 0.932445
vt 0.064992 0.000000
vt 0.077786 0.310822
vt 0.974062 0.000000
vt 0.994283 0.000000
vt 0.969412 0.310263
vt 0.961567 0.310263
vt 0.921727 0.623312
vt 0.934891 0.932445
vt 0.000000 0.000000
vt 0.052571 0.310822
vt 0.931648 0.000000
vt 0.945111 0.310263
vt 0.885868 0.623312
vt 0.920979 0.932445
vt 0.594465 0.310700
vt 0.633887 0.623312
vt 0.275653 0.000000
vt 0.340646 0.000000
vt 0.288075 0.310700
vt 0.262859 0.310700
vt 0.916854 0.000000
vt 0.939372 0.310263
vt 0.127243 0.310822
vt 0.087821 0.623583
vt 0.976406 0.310700
vt 0.953888 0.621005
vt 0.721708 0.310700
vt 0.683254 0.623312
vt 0.340646 0.754678
vt 0.340646 0.734842
vt 0.376599 0.764514
vt 0.376599 0.778778
vt 0.444783 0.305312
vt 0.426526 0.305312
vt 0.429091 0.258766
vt 0.442219 0.258766
vt 0.163196 0.395650
vt 0.163196 0.438064
vt 0.127243 0.431990
vt 0.127243 0.401491
vt 0.340646 0.819671
vt 0.376599 0.825512
vt 0.340646 0.862085
vt 0.376599 0.856011
vt 0.432035 0.750599
vt 0.418907 0.750599
vt 0.418907 0.734842
vt 0.432035 0.734842
vt 0.432035 0.887337
vt 0.418907 0.887337
vt 0.418907 0.873073
vt 0.432035 0.873073
vt 0.418907 0.826339
vt 0.432035 0.826339
vt 0.418907 0.795840
vt 0.432035 0.795840
vt 0.163196 0.500981
vt 0.163196 0.522893
vt 0.127243 0.492988
vt 0.127243 0.477231
vt 0.163196 0.310822
vt 0.163196 0.330658
vt 0.127243 0.354757
vt 0.127243 0.340494
vt 0.340646 0.946913
vt 0.340646 0.925001
vt 0.376599 0.901252
vt 0.376599 0.917008
vt 0.444783 0.258766
vt 0.426526 0.258766
vt 0.429091 0.212071
vt 0.442219 0.212071
vn 0.0000 0.0000 -1.0000
vn 1.0000 0.0000 0.0000
vn 0.0000 0.0000 1.0000
vn 0.0000 -1.0000 0.0000
vn 0.0000 1.0000 0.0000
vn -1.0000 0.0000 0.0000
vn 0.0000 -0.1474 0.9891
vn -0.9923 0.1238 0.0000
vn 0.0000 0.2177 0.9760
vn 0.9968 -0.0804 0.0000
vn 0.0000 0.2142 -0.9768
vn 0.9919 0.1268 0.0000
vn -0.9973 -0.0728 0.0000
vn 0.0000 -0.1459 -0.9893
vn -0.0713 -0.9975 0.0000
vn -0.7346 0.0000 0.6785
vn -0.0713 0.9975 0.0000
vn -0.7372 0.0000 -0.6757
usemtl Material.003
s off
f 141/1/1 32/2/1 8/3/1 77/4/1
f 97/5/2 24/6/2 6/7/2 81/8/2
f 125/9/3 40/10/3 2/11/3 72/12/3
f 65/13/4 17/14/4 5/15/4 36/16/4
f 49/17/5 13/18/5 2/19/5 40/20/5
f 29/21/5 4/22/5 16/23/5 41/24/5
f 41/24/5 16/23/5 15/25/5 45/26/5
f 45/26/5 15/25/5 14/27/5 47/28/5
f 47/28/5 14/27/5 13/18/5 49/17/5
f 25/29/4 7/30/4 20/31/4 53/32/4
f 53/32/4 20/31/4 19/33/4 57/34/4
f 57/34/4 19/33/4 18/35/4 61/36/4
f 61/36/4 18/35/4 17/14/4 65/13/4
f 77/4/2 8/3/2 21/37/2 85/38/2
f 85/38/2 21/37/2 22/39/2 89/40/2
f 89/40/2 22/39/2 23/41/2 93/42/2
f 93/42/2 23/41/2 24/6/2 97/5/2
f 11/43/4 64/44/4 68/45/4 12/46/4
f 64/44/4 63/47/4 67/48/4 68/45/4
f 63/47/4 62/49/4 66/50/4 67/48/4
f 62/49/4 61/36/4 65/13/4 66/50/4
f 10/51/4 60/52/4 64/44/4 11/43/4
f 60/52/4 59/53/4 63/47/4 64/44/4
f 59/53/4 58/54/4 62/49/4 63/47/4
f 58/54/4 57/34/4 61/36/4 62/49/4
f 9/55/4 56/56/4 60/52/4 10/51/4
f 56/56/4 55/57/4 59/53/4 60/52/4
f 55/57/4 54/58/4 58/54/4 59/53/4
f 54/58/4 53/32/4 57/34/4 58/54/4
f 3/59/4 28/60/4 56/56/4 9/55/4
f 28/60/4 27/61/4 55/57/4 56/56/4
f 27/61/4 26/62/4 54/58/4 55/57/4
f 26/62/4 25/29/4 53/32/4 54/58/4
f 48/63/5 47/28/5 49/17/5 50/64/5
f 46/65/5 45/26/5 47/28/5 48/63/5
f 42/66/5 41/24/5 45/26/5 46/65/5
f 8/67/5 32/68/5 44/69/5 21/70/5
f 32/68/5 31/71/5 43/72/5 44/69/5
f 31/71/5 30/73/5 42/66/5 43/72/5
f 30/73/5 29/21/5 41/24/5 42/66/5
f 24/74/5 52/75/5 37/76/5 6/77/5
f 52/75/5 51/78/5 38/79/5 37/76/5
f 51/78/5 50/64/5 39/80/5 38/79/5
f 50/64/5 49/17/5 40/20/5 39/80/5
f 12/46/4 68/45/4 33/81/4 1/82/4
f 68/45/4 67/48/4 34/83/4 33/81/4
f 67/48/4 66/50/4 35/84/4 34/83/4
f 66/50/4 65/13/4 36/16/4 35/84/4
f 81/85/3 6/77/3 37/86/3 113/87/3
f 113/87/3 37/86/3 38/88/3 117/89/3
f 117/89/3 38/88/3 39/90/3 121/91/3
f 121/91/3 39/90/3 40/10/3 125/9/3
f 73/92/1 4/93/1 29/94/1 129/95/1
f 129/95/1 29/94/1 30/96/1 133/97/1
f 133/97/1 30/96/1 31/98/1 137/99/1
f 137/99/1 31/98/1 32/2/1 141/1/1
f 26/100/1 140/101/1 144/102/1 25/103/1
f 140/101/1 139/104/1 143/105/1 144/102/1
f 139/104/1 138/106/1 142/107/1 143/105/1
f 138/106/1 137/99/1 141/1/1 142/107/1
f 27/108/1 136/109/1 140/101/1 26/100/1
f 136/109/1 135/110/1 139/104/1 140/101/1
f 135/110/1 134/111/1 138/106/1 139/104/1
f 134/111/1 133/97/1 137/99/1 138/106/1
f 28/112/1 132/113/1 136/109/1 27/108/1
f 132/113/1 131/114/1 135/110/1 136/109/1
f 131/114/1 130/115/1 134/111/1 135/110/1
f 130/115/1 129/95/1 133/97/1 134/111/1
f 3/116/1 76/117/1 132/113/1 28/112/1
f 76/117/1 75/118/1 131/114/1 132/113/1
f 75/118/1 74/119/1 130/115/1 131/114/1
f 74/119/1 73/92/1 129/95/1 130/115/1
f 34/120/3 124/121/3 128/122/3 33/123/3
f 124/121/3 123/124/3 127/125/3 128/122/3
f 123/124/3 122/126/3 126/127/3 127/125/3
f 122/126/3 121/91/3 125/9/3 126/127/3
f 35/128/3 120/129/3 124/121/3 34/120/3
f 120/129/3 119/130/3 123/124/3 124/121/3
f 119/130/3 118/131/3 122/126/3 123/124/3
f 118/131/3 117/89/3 121/91/3 122/126/3
f 36/132/3 116/133/3 120/129/3 35/128/3
f 116/133/3 115/134/3 119/130/3 120/129/3
f 115/134/3 114/135/3 118/131/3 119/130/3
f 114/135/3 113/87/3 117/89/3 118/131/3
f 5/136/3 84/137/3 116/133/3 36/132/3
f 84/137/3 83/138/3 115/134/3 116/133/3
f 83/138/3 82/139/3 114/135/3 115/134/3
f 82/139/3 81/85/3 113/87/3 114/135/3
f 10/140/6 108/141/6 112/142/6 9/143/6
f 112/144/5 108/145/5 156/146/5 160/147/5
f 11/148/6 106/149/6 108/141/6 10/140/6
f 111/150/3 112/151/3 160/152/3 159/153/3
f 102/154/1 101/155/1 145/156/1 146/157/1
f 110/158/3 111/150/3 159/153/3 158/159/3
f 12/160/6 104/161/6 106/149/6 11/148/6
f 104/162/1 103/163/1 147/164/1 148/165/1
f 106/166/5 104/167/5 148/168/5 152/169/5
f 109/170/3 110/158/3 158/159/3 157/171/3
f 1/172/6 69/173/6 104/161/6 12/160/6
f 69/173/6 70/174/6 103/175/6 104/161/6
f 70/174/6 71/176/6 102/177/6 103/175/6
f 71/176/6 72/178/6 101/179/6 102/177/6
f 18/180/2 96/181/2 100/182/2 17/183/2
f 96/181/2 95/184/2 99/185/2 100/182/2
f 95/184/2 94/186/2 98/187/2 99/185/2
f 94/186/2 93/42/2 97/5/2 98/187/2
f 19/188/2 92/189/2 96/181/2 18/180/2
f 92/189/2 91/190/2 95/184/2 96/181/2
f 91/190/2 90/191/2 94/186/2 95/184/2
f 90/191/2 89/40/2 93/42/2 94/186/2
f 20/192/2 88/193/2 92/189/2 19/188/2
f 88/193/2 87/194/2 91/190/2 92/189/2
f 87/194/2 86/195/2 90/191/2 91/190/2
f 86/195/2 85/38/2 89/40/2 90/191/2
f 7/196/2 80/197/2 88/193/2 20/192/2
f 80/197/2 79/198/2 87/194/2 88/193/2
f 79/198/2 78/199/2 86/195/2 87/194/2
f 78/199/2 77/4/2 85/38/2 86/195/2
f 33/123/3 128/122/3 69/200/3 1/201/3
f 128/122/3 127/125/3 70/202/3 69/200/3
f 127/125/3 126/127/3 71/203/3 70/202/3
f 126/127/3 125/9/3 72/12/3 71/203/3
f 17/183/2 100/182/2 84/204/2 5/205/2
f 100/182/2 99/185/2 83/206/2 84/204/2
f 99/185/2 98/187/2 82/207/2 83/206/2
f 98/187/2 97/5/2 81/8/2 82/207/2
f 25/103/1 144/102/1 80/197/1 7/196/1
f 144/102/1 143/105/1 79/198/1 80/197/1
f 143/105/1 142/107/1 78/199/1 79/198/1
f 142/107/1 141/1/1 77/4/1 78/199/1
f 9/143/6 112/142/6 76/208/6 3/209/6
f 112/142/6 111/210/6 75/211/6 76/208/6
f 111/210/6 110/212/6 74/213/6 75/211/6
f 110/212/6 109/214/6 73/215/6 74/213/6
f 156/216/6 155/217/6 159/218/6 160/219/6
f 155/217/6 154/220/6 158/221/6 159/218/6
f 154/220/6 153/222/6 157/223/6 158/221/6
f 152/224/6 151/225/6 155/217/6 156/216/6
f 151/225/6 150/226/6 154/220/6 155/217/6
f 150/226/6 149/227/6 153/222/6 154/220/6
f 148/228/6 147/229/6 151/225/6 152/224/6
f 147/229/6 146/230/6 150/226/6 151/225/6
f 146/230/6 145/231/6 149/227/6 150/226/6
f 103/163/1 102/154/1 146/157/1 147/164/1
f 108/145/5 106/166/5 152/169/5 156/146/5
f 165/232/2 167/233/2 168/234/2 166/235/2 163/236/2 162/237/2 161/238/2 164/239/2
f 171/240/3 172/241/3 170/242/3 169/243/3 168/244/3 167/245/3
f 177/246/6 174/247/6 172/248/6 171/249/6 173/250/6 178/251/6 176/252/6 175/253/6
f 161/254/1 162/255/1 180/256/1 179/257/1 175/258/1 176/259/1
f 168/260/7 169/261/7 211/262/7 205/263/7
f 42/264/8 46/265/8 204/266/8 199/267/8
f 51/268/9 52/269/9 198/270/9 202/271/9
f 163/272/10 166/273/10 206/274/10 207/275/10
f 44/276/11 43/277/11 200/278/11 197/279/11
f 169/261/7 170/280/7 210/281/7 211/262/7
f 50/282/9 51/268/9 202/271/9 201/283/9
f 166/273/10 168/284/10 205/285/10 206/274/10
f 164/286/4 105/287/4 107/288/4 165/289/4
f 173/290/4 153/291/4 149/292/4 178/293/4
f 107/288/4 109/294/4 157/295/4 153/291/4 173/290/4 171/296/4 167/297/4 165/289/4
f 149/292/4 145/298/4 101/299/4 105/287/4 164/286/4 161/300/4 176/301/4 178/293/4
f 216/302/5 198/303/5 196/304/5 195/305/5 212/306/5 214/307/5
f 215/308/5 202/309/5 198/303/5 216/302/5
f 203/310/5 201/311/5 202/309/5 215/308/5 208/312/5 207/313/5
f 195/305/5 194/314/5 213/315/5 212/306/5
f 204/316/5 203/310/5 207/313/5 206/317/5
f 209/318/5 213/315/5 194/314/5 193/319/5 197/320/5 210/321/5
f 210/321/5 197/320/5 200/322/5 211/323/5
f 211/323/5 200/322/5 199/324/5 204/316/5 206/317/5 205/325/5
f 22/326/12 21/327/12 193/328/12 194/329/12
f 162/330/10 163/272/10 207/275/10 208/331/10
f 177/332/13 175/333/13 214/334/13 212/335/13
f 23/336/12 22/326/12 194/329/12 195/337/12
f 180/338/14 162/339/14 208/340/14 215/341/14
f 174/342/13 177/332/13 212/335/13 213/343/13
f 24/344/12 23/336/12 195/337/12 196/345/12
f 179/346/14 180/338/14 215/341/14 216/347/14
f 172/348/13 174/342/13 213/343/13 209/349/13
f 21/350/11 44/276/11 197/279/11 193/351/11
f 48/352/8 50/353/8 201/354/8 203/355/8
f 175/356/14 179/346/14 216/347/14 214/357/14
f 52/269/9 24/358/9 196/359/9 198/270/9
f 46/265/8 48/352/8 203/355/8 204/266/8
f 170/280/7 172/360/7 209/361/7 210/281/7
f 43/277/11 42/362/11 199/363/11 200/278/11
usemtl Material.004
f 101/364/15 72/365/15 181/366/15 189/367/15
f 72/368/16 2/369/16 182/370/16 181/371/16
f 14/372/17 15/373/17 187/374/17 186/375/17
f 105/376/15 101/364/15 189/367/15 190/377/15
f 107/378/15 105/376/15 190/377/15 191/379/15
f 192/380/6 183/381/6 184/382/6 188/383/6
f 181/384/6 182/385/6 185/386/6 189/387/6
f 189/387/6 185/386/6 186/388/6 190/389/6
f 190/389/6 186/388/6 187/390/6 191/391/6
f 191/391/6 187/390/6 183/381/6 192/380/6
f 16/392/17 4/393/17 184/394/17 183/395/17
f 15/373/17 16/392/17 183/395/17 187/374/17
f 2/396/17 13/397/17 185/398/17 182/399/17
f 73/400/15 109/401/15 192/402/15 188/403/15
f 4/404/18 73/405/18 188/406/18 184/407/18
f 109/401/15 107/378/15 191/379/15 192/402/15
f 13/397/17 14/372/17 186/375/17 185/398/17
