# Blender v2.92.0 OBJ File: ''
# www.blender.org
mtllib mesa de jantar.mtl
o Cube
v 0.550050 0.670911 -1.085710
v 0.550050 0.594160 -1.085710
v 0.550050 0.670911 1.114290
v 0.550050 0.594160 1.114290
v -0.549950 0.670911 -1.085710
v -0.549950 0.594160 -1.085710
v -0.549950 0.670911 1.114290
v -0.549950 0.594160 1.114290
v -0.549950 0.594160 0.590967
v -0.549950 0.594160 0.654895
v 0.550050 0.594160 0.654895
v 0.550050 0.594160 0.590967
v 0.550050 0.594160 -0.601149
v 0.550050 0.594160 -0.665068
v -0.549950 0.594160 -0.665068
v -0.549950 0.594160 -0.601149
v 0.343330 0.594160 -1.085710
v 0.170489 0.594160 -1.085710
v 0.170489 0.594160 1.114290
v 0.343330 0.594160 1.114290
v 0.343330 0.594160 0.590967
v 0.170489 0.594160 0.590967
v 0.343330 0.594160 0.654895
v 0.170489 0.594160 0.654895
v 0.343330 0.594160 -0.665068
v 0.170489 0.594160 -0.665068
v 0.343330 0.594160 -0.601149
v 0.170489 0.594160 -0.601149
v -0.170606 0.594160 -1.085710
v -0.170606 0.594160 0.590967
v -0.170606 0.594160 0.654895
v -0.170606 0.594160 -0.665068
v -0.170606 0.594160 -0.601149
v -0.170606 0.594160 1.114290
v 0.523109 0.670911 -1.056649
v -0.522187 0.670911 -1.056649
v -0.343283 0.594160 -1.085710
v -0.343283 0.594160 0.590967
v -0.343283 0.594160 0.654895
v -0.343283 0.594160 -0.665068
v -0.343283 0.594160 -0.601149
v -0.343283 0.594160 1.114290
v 0.523109 0.670911 1.084816
v -0.522187 0.670911 1.084816
v 0.343330 -0.089089 0.590967
v 0.170489 -0.089089 0.590967
v 0.343330 -0.089089 0.654895
v 0.170489 -0.089089 0.654895
v 0.343330 -0.089089 -0.665068
v 0.170489 -0.089089 -0.665068
v 0.343330 -0.089089 -0.601149
v 0.170489 -0.089089 -0.601149
v -0.170606 -0.089089 0.590967
v -0.170606 -0.089089 0.654895
v -0.170606 -0.089089 -0.665068
v -0.170606 -0.089089 -0.601149
v -0.343283 -0.089089 0.590967
v -0.343283 -0.089089 0.654895
v -0.343283 -0.089089 -0.665068
v -0.343283 -0.089089 -0.601149
v 0.170489 0.037312 -0.601149
v 0.343330 0.037312 -0.601149
v 0.170489 0.037312 -0.665068
v 0.343330 0.037312 -0.665068
v -0.170606 0.037199 -0.665068
v -0.343283 0.037199 -0.665068
v -0.343283 0.037199 -0.601149
v -0.170606 0.037199 -0.601149
v 0.343330 0.037042 0.590967
v 0.170489 0.037042 0.590967
v 0.170489 0.037042 0.654895
v 0.343330 0.037042 0.654895
v -0.343283 0.037209 0.654895
v -0.170606 0.037209 0.654895
v -0.170606 0.037209 0.590967
v -0.343283 0.037209 0.590967
vt 0.505139 0.224667
vt 0.392805 0.224667
vt 0.394310 0.221832
vt 0.503655 0.221832
vt 0.416262 0.091223
vt 0.416262 0.112333
vt 0.392805 0.112333
vt 0.392805 0.091223
vt 0.480397 0.091223
vt 0.480397 0.112333
vt 0.419526 0.112333
vt 0.419526 0.091223
vt 0.392805 0.112334
vt 0.505139 0.112334
vt 0.503655 0.115085
vt 0.394310 0.115085
vt 0.505139 0.091223
vt 0.505139 0.112333
vt 0.483660 0.112333
vt 0.483660 0.091223
vt 0.392805 0.449334
vt 0.280472 0.449334
vt 0.280472 0.337001
vt 0.303929 0.337001
vt 0.307193 0.337001
vt 0.368063 0.337001
vt 0.371327 0.337001
vt 0.392805 0.337001
vt 0.280472 0.224667
vt 0.280472 0.112333
vt 0.301950 0.112333
vt 0.305214 0.112333
vt 0.366084 0.112333
vt 0.369348 0.112333
vt 0.392805 0.112333
vt 0.483660 0.038739
vt 0.483660 0.073572
vt 0.480397 0.073572
vt 0.480397 0.038739
vt 0.396069 0.259500
vt 0.399333 0.259500
vt 0.399333 0.294333
vt 0.396069 0.294333
vt 0.505139 0.038739
vt 0.505139 0.073572
vt 0.419526 0.038739
vt 0.419526 0.073572
vt 0.416262 0.073572
vt 0.416262 0.038739
vt 0.157887 0.184604
vt 0.140236 0.184604
vt 0.140236 0.000000
vt 0.157887 0.000000
vt 0.392805 0.073572
vt 0.392805 0.038739
vt 0.416262 0.021105
vt 0.392805 0.021105
vt 0.392805 0.337001
vt 0.280472 0.337001
vt 0.280472 0.224668
vt 0.301582 0.224668
vt 0.319233 0.224668
vt 0.354066 0.224668
vt 0.371700 0.224668
vt 0.392805 0.224668
vt 0.480397 0.021105
vt 0.419526 0.021105
vt 0.087752 0.184849
vt 0.070118 0.184849
vt 0.070118 0.000000
vt 0.087752 0.000000
vt 0.505139 0.021105
vt 0.483660 0.021105
vt 0.280472 0.185000
vt 0.262821 0.185000
vt 0.262821 0.000000
vt 0.280472 0.000000
vt 0.483660 0.000000
vt 0.480397 0.000000
vt 0.505139 0.000000
vt 0.419526 0.000000
vt 0.416262 0.000000
vt 0.392805 0.000000
vt 0.280472 0.112333
vt 0.280472 0.000000
vt 0.301577 0.000000
vt 0.319211 0.000000
vt 0.354044 0.000000
vt 0.371695 0.000000
vt 0.392805 0.000000
vt 0.396069 0.347252
vt 0.396069 0.364903
vt 0.392805 0.364903
vt 0.392805 0.347252
vt 0.396069 0.277134
vt 0.396069 0.294785
vt 0.392805 0.294785
vt 0.392805 0.277134
vt 0.396069 0.224667
vt 0.396069 0.242301
vt 0.392805 0.242301
vt 0.392805 0.224667
vt 0.396069 0.294785
vt 0.396069 0.312419
vt 0.392805 0.312419
vt 0.392805 0.294785
vt 0.070118 0.184834
vt 0.052484 0.184834
vt 0.052484 0.000000
vt 0.070118 0.000000
vt 0.521459 0.184834
vt 0.518196 0.184834
vt 0.518196 0.000000
vt 0.521459 0.000000
vt 0.518195 0.185000
vt 0.514932 0.185000
vt 0.514932 0.000000
vt 0.518195 0.000000
vt 0.227988 0.184834
vt 0.210354 0.184834
vt 0.210354 0.000000
vt 0.227988 0.000000
vt 0.140236 0.184604
vt 0.122585 0.184604
vt 0.122585 0.000000
vt 0.140236 0.000000
vt 0.508403 0.184849
vt 0.505139 0.184849
vt 0.505139 0.000000
vt 0.508403 0.000000
vt 0.511667 0.184849
vt 0.508403 0.184849
vt 0.508403 0.000000
vt 0.511667 0.000000
vt 0.524723 0.184834
vt 0.521459 0.184834
vt 0.521459 0.000000
vt 0.524723 0.000000
vt 0.017651 0.185000
vt 0.000000 0.185000
vt 0.000000 0.000000
vt 0.017651 0.000000
vt 0.514932 0.184604
vt 0.511667 0.184604
vt 0.511667 0.000000
vt 0.514932 0.000000
vt 0.210354 0.184849
vt 0.192720 0.184849
vt 0.192720 0.000000
vt 0.210354 0.000000
vt 0.017651 1.000000
vt 0.000000 1.000000
vt 0.518195 1.000000
vt 0.514932 1.000000
vt 0.280472 1.000000
vt 0.262821 1.000000
vt 0.531251 0.815000
vt 0.527987 0.815000
vt 0.527987 0.000000
vt 0.531251 0.000000
vt 0.524723 1.000000
vt 0.521459 1.000000
vt 0.227988 1.000000
vt 0.210354 1.000000
vt 0.521459 1.000000
vt 0.518196 1.000000
vt 0.070118 1.000000
vt 0.052484 1.000000
vt 0.514931 1.000000
vt 0.511667 1.000000
vt 0.527987 0.815396
vt 0.524723 0.815396
vt 0.524723 0.000000
vt 0.527987 0.000000
vt 0.140236 1.000000
vt 0.122585 1.000000
vt 0.157887 1.000000
vt 0.140236 1.000000
vt 0.210354 1.000000
vt 0.192720 1.000000
vt 0.511667 1.000000
vt 0.508403 1.000000
vt 0.508403 1.000000
vt 0.505139 1.000000
vt 0.087752 1.000000
vt 0.070118 1.000000
vt 0.396069 0.224667
vt 0.399334 0.224667
vt 0.399334 0.259500
vt 0.396069 0.259500
vn 0.0000 1.0000 0.0000
vn 0.0000 -1.0000 0.0000
vn 1.0000 -0.0000 0.0000
vn -1.0000 -0.0000 0.0000
vn -0.0003 1.0000 0.0000
vn 0.0000 0.0000 -1.0000
vn 0.0000 0.0000 1.0000
vn 0.0005 1.0000 0.0000
usemtl madiera
s off
f 5/1/1 7/2/1 44/3/1 36/4/1
f 23/5/2 11/6/2 4/7/2 20/8/2
f 27/9/2 13/10/2 12/11/2 21/12/2
f 21/12/2 12/11/2 11/6/2 23/5/2
f 3/13/1 1/14/1 35/15/1 43/16/1
f 17/17/2 2/18/2 14/19/2 25/20/2
f 25/20/2 14/19/2 13/10/2 27/9/2
f 1/21/3 3/22/3 4/23/3 11/24/3 12/25/3 13/26/3 14/27/3 2/28/3
f 7/2/4 5/29/4 6/30/4 15/31/4 16/32/4 9/33/4 10/34/4 8/35/4
f 32/36/2 26/37/2 28/38/2 33/39/2
f 61/40/5 63/41/5 65/42/5 68/43/5
f 29/44/2 18/45/2 26/37/2 32/36/2
f 18/45/2 17/17/2 25/20/2 26/37/2
f 7/2/1 3/13/1 43/16/1 44/3/1
f 30/46/2 22/47/2 24/48/2 31/49/2
f 70/50/6 69/51/6 45/52/6 46/53/6
f 33/39/2 28/38/2 22/47/2 30/46/2
f 28/38/2 27/9/2 21/12/2 22/47/2
f 31/49/2 24/48/2 19/54/2 34/55/2
f 24/48/2 23/5/2 20/8/2 19/54/2
f 39/56/2 31/49/2 34/55/2 42/57/2
f 5/58/6 1/59/6 2/60/6 17/61/6 18/62/6 29/63/6 37/64/6 6/65/6
f 41/66/2 33/39/2 30/46/2 38/67/2
f 74/68/7 73/69/7 58/70/7 54/71/7
f 37/72/2 29/44/2 32/36/2 40/73/2
f 62/74/7 61/75/7 52/76/7 51/77/7
f 15/78/2 40/73/2 41/66/2 16/79/2
f 6/80/2 37/72/2 40/73/2 15/78/2
f 9/81/2 38/67/2 39/56/2 10/82/2
f 16/79/2 41/66/2 38/67/2 9/81/2
f 10/82/2 39/56/2 42/57/2 8/83/2
f 1/14/1 5/1/1 36/4/1 35/15/1
f 3/13/7 7/84/7 8/85/7 42/86/7 34/87/7 19/88/7 20/89/7 4/90/7
f 50/91/2 49/92/2 51/93/2 52/94/2
f 46/95/2 45/96/2 47/97/2 48/98/2
f 57/99/2 53/100/2 54/101/2 58/102/2
f 59/103/2 55/104/2 56/105/2 60/106/2
f 66/107/6 65/108/6 55/109/6 59/110/6
f 67/111/4 66/112/4 59/113/4 60/114/4
f 64/115/3 62/116/3 51/117/3 49/118/3
f 68/119/7 67/120/7 60/121/7 56/122/7
f 72/123/7 71/124/7 48/125/7 47/126/7
f 75/127/3 74/128/3 54/129/3 53/130/3
f 73/131/4 76/132/4 57/133/4 58/134/4
f 65/135/3 68/136/3 56/137/3 55/138/3
f 63/139/6 64/140/6 49/141/6 50/142/6
f 46/95/2 48/98/2 54/101/2 53/100/2
f 69/143/3 72/144/3 47/145/3 45/146/3
f 76/147/6 75/148/6 53/149/6 57/150/6
f 26/151/6 25/152/6 64/140/6 63/139/6
f 25/153/3 27/154/3 62/116/3 64/115/3
f 27/155/7 28/156/7 61/75/7 62/74/7
f 28/157/4 26/158/4 63/159/4 61/160/4
f 32/161/3 33/162/3 68/136/3 65/135/3
f 33/163/7 41/164/7 67/120/7 68/119/7
f 41/165/4 40/166/4 66/112/4 67/111/4
f 40/167/6 32/168/6 65/108/6 66/107/6
f 21/169/3 23/170/3 72/144/3 69/143/3
f 24/171/4 22/172/4 70/173/4 71/174/4
f 23/175/7 24/176/7 71/124/7 72/123/7
f 22/177/6 21/178/6 69/51/6 70/50/6
f 38/179/6 30/180/6 75/148/6 76/147/6
f 39/181/4 38/182/4 76/132/4 73/131/4
f 30/183/3 31/184/3 74/128/3 75/127/3
f 31/185/7 39/186/7 73/69/7 74/68/7
f 48/125/7 71/124/7 74/68/7 54/71/7
f 71/187/8 70/188/8 75/189/8 74/190/8
f 70/50/6 46/53/6 53/149/6 75/148/6
f 50/91/2 52/94/2 56/105/2 55/104/2
f 63/139/6 50/142/6 55/109/6 65/108/6
f 52/76/7 61/75/7 68/119/7 56/122/7
usemtl madiera_escura
f 36/4/1 44/3/1 43/16/1 35/15/1
