# Blender v2.92.0 OBJ File: 'mesa de centro.blend'
# www.blender.org
mtllib mesa de centro.mtl
o Cube
v 0.300000 1.591341 0.450000
v 0.300000 1.614878 0.450000
v 0.300000 1.591341 -0.450000
v 0.300000 1.614878 -0.450000
v 0.290340 1.591341 -0.435510
v 0.290340 1.591341 0.435510
v 0.290340 1.579793 -0.435510
v 0.290340 1.579793 0.435510
v 0.267669 1.614878 -0.450000
v 0.267669 1.591341 0.450000
v 0.260044 1.591341 0.435510
v 0.260044 1.579793 0.435510
v 0.267669 1.591341 -0.450000
v 0.267669 1.614878 0.450000
v 0.260044 1.591341 -0.435510
v 0.260044 1.579793 -0.435510
v 0.300000 1.591341 0.432328
v 0.300000 1.614878 0.432328
v 0.290340 1.591341 0.418766
v 0.290340 1.579793 0.418766
v 0.267669 1.614878 0.432328
v 0.260044 1.579793 0.418766
v 0.300000 1.591341 -0.433050
v 0.290340 1.591341 -0.419603
v 0.290340 1.579793 -0.419603
v 0.300000 1.614878 -0.433050
v 0.267669 1.614878 -0.433050
v 0.260044 1.579793 -0.419603
v 0.290340 1.314878 -0.419603
v 0.290340 1.314878 -0.435510
v 0.260044 1.314878 0.435510
v 0.290340 1.314878 0.435510
v 0.260044 1.314878 -0.435510
v 0.260044 1.314878 0.418766
v 0.290340 1.314878 0.418766
v 0.260044 1.314878 -0.419603
v -0.267669 1.591341 -0.450000
v -0.267669 1.614878 0.450000
v -0.260044 1.591341 -0.435510
v -0.260044 1.579793 -0.435510
v -0.267669 1.614878 -0.450000
v -0.267669 1.591341 0.450000
v -0.260044 1.591341 0.435510
v -0.260044 1.579793 0.435510
v -0.260044 1.579793 0.418766
v -0.267669 1.614878 0.432328
v -0.267669 1.614878 -0.433050
v -0.260044 1.579793 -0.419603
v 0.290340 1.336193 0.435510
v 0.290340 1.336193 0.418766
v 0.260044 1.336193 0.435510
v 0.260044 1.336193 0.418766
v 0.290340 1.314878 0.009647
v 0.260044 1.314878 0.009647
v 0.290340 1.336193 0.009647
v 0.260044 1.336193 0.009647
v -0.002967 1.314878 0.418766
v -0.002967 1.314878 0.435510
v -0.002967 1.336193 0.435510
v -0.002967 1.336193 0.418766
v -0.300000 1.591341 0.450000
v -0.300000 1.614878 0.450000
v -0.300000 1.591341 -0.450000
v -0.300000 1.614878 -0.450000
v -0.290340 1.591341 -0.435510
v -0.290340 1.591341 0.435510
v -0.290340 1.579793 -0.435510
v -0.290340 1.579793 0.435510
v -0.300000 1.591341 0.432328
v -0.300000 1.614878 0.432328
v -0.290340 1.591341 0.418766
v -0.290340 1.579793 0.418766
v -0.300000 1.591341 -0.433050
v -0.290340 1.591341 -0.419603
v -0.290340 1.579793 -0.419603
v -0.300000 1.614878 -0.433050
v -0.290340 1.314878 -0.419603
v -0.290340 1.314878 -0.435510
v -0.260044 1.314878 0.435510
v -0.290340 1.314878 0.435510
v -0.260044 1.314878 -0.435510
v -0.260044 1.314878 0.418766
v -0.290340 1.314878 0.418766
v -0.260044 1.314878 -0.419603
v -0.290340 1.336193 0.435510
v -0.290340 1.336193 0.418766
v -0.260044 1.336193 0.435510
v -0.260044 1.336193 0.418766
v -0.290340 1.314878 0.009647
v -0.260044 1.314878 0.009647
v -0.290340 1.336193 0.009647
v -0.260044 1.336193 0.009647
v 0.290340 1.335714 -0.419603
v 0.260044 1.335714 -0.419603
v -0.290340 1.335675 -0.419603
v -0.260044 1.335675 -0.419603
v -0.290340 1.335675 -0.435510
v -0.260044 1.335675 -0.435510
v 0.290340 1.335714 -0.435510
v 0.260044 1.335714 -0.435510
vt 0.356833 0.061080
vt 0.356833 0.122159
vt 0.353542 0.122159
vt 0.353542 0.061080
vt 0.354741 0.244319
vt 0.354741 0.305399
vt 0.353542 0.305399
vt 0.353542 0.244319
vt 0.411330 0.000000
vt 0.414622 0.000000
vt 0.413638 0.000983
vt 0.410554 0.000983
vt 0.414622 0.059880
vt 0.414622 0.061080
vt 0.413638 0.060096
vt 0.413638 0.058960
vt 0.414622 0.183239
vt 0.414622 0.244319
vt 0.411330 0.244319
vt 0.411330 0.183239
vt 0.413421 0.366478
vt 0.413421 0.363187
vt 0.414621 0.363187
vt 0.414621 0.366478
vt 0.411330 0.061080
vt 0.410554 0.060096
vt 0.356833 0.000000
vt 0.357610 0.000983
vt 0.411330 0.061080
vt 0.411330 0.122159
vt 0.354692 0.366478
vt 0.354692 0.363187
vt 0.414622 0.001150
vt 0.413638 0.002063
vt 0.413471 0.244319
vt 0.413471 0.305399
vt 0.414622 0.244319
vt 0.414622 0.305399
vt 0.353542 0.366478
vt 0.353542 0.363187
vt 0.295565 0.054073
vt 0.292481 0.054073
vt 0.292481 0.000000
vt 0.295565 0.000000
vt 0.296645 0.054073
vt 0.295565 0.054073
vt 0.295565 0.000000
vt 0.296645 0.000000
vt 0.353542 0.308690
vt 0.354692 0.308690
vt 0.413421 0.308690
vt 0.356833 0.244319
vt 0.356833 0.183239
vt 0.414621 0.308690
vt 0.356833 0.061080
vt 0.357610 0.060096
vt 0.415758 0.281334
vt 0.414622 0.281334
vt 0.414622 0.226019
vt 0.415758 0.226019
vt 0.414622 0.061080
vt 0.414622 0.122159
vt 0.413422 0.122159
vt 0.414622 0.122159
vt 0.414622 0.183239
vt 0.413422 0.183239
vt 0.354525 0.000983
vt 0.353542 0.000000
vt 0.353542 0.059880
vt 0.354525 0.058960
vt 0.354525 0.060096
vt 0.353542 0.061080
vt 0.353542 0.183239
vt 0.353542 0.244319
vt 0.413421 0.305399
vt 0.414621 0.305399
vt 0.354692 0.305399
vt 0.353542 0.001150
vt 0.354525 0.002063
vt 0.354692 0.122159
vt 0.354692 0.183239
vt 0.353542 0.122159
vt 0.353542 0.183239
vt 0.353542 0.305399
vt 0.236452 0.053972
vt 0.236452 0.000000
vt 0.239536 0.000000
vt 0.239536 0.053972
vt 0.001136 0.055315
vt 0.000000 0.055315
vt 0.000000 0.000000
vt 0.001136 0.000000
vt 0.180423 0.717463
vt 0.177339 0.717463
vt 0.177339 0.687492
vt 0.180423 0.687492
vt 0.001136 0.717463
vt 0.000000 0.717463
vt 0.000000 0.687492
vt 0.001136 0.687492
vt 0.177339 0.717463
vt 0.174255 0.717463
vt 0.174255 0.687492
vt 0.177339 0.687492
vt 0.233368 0.717463
vt 0.233368 0.687492
vt 0.356626 0.424455
vt 0.409571 0.424455
vt 0.409571 0.425591
vt 0.356626 0.425591
vt 0.356626 0.367558
vt 0.409571 0.367558
vt 0.058033 0.717463
vt 0.058033 0.687492
vt 0.412655 0.367558
vt 0.412655 0.424455
vt 0.059113 0.054073
vt 0.058033 0.054073
vt 0.058033 0.000000
vt 0.059113 0.000000
vt 0.059113 0.717463
vt 0.059113 0.687492
vt 0.180423 0.054073
vt 0.177339 0.054073
vt 0.177339 0.000000
vt 0.180423 0.000000
vt 0.356626 0.366478
vt 0.409571 0.366478
vt 0.468684 0.424455
vt 0.471768 0.424455
vt 0.471768 0.425591
vt 0.468684 0.425591
vt 0.468684 0.366478
vt 0.471768 0.366478
vt 0.471768 0.367558
vt 0.468684 0.367558
vt 0.177339 0.055315
vt 0.174255 0.055315
vt 0.174255 0.000000
vt 0.177339 0.000000
vt 0.353542 0.000000
vt 0.353542 0.055315
vt 0.325777 0.055315
vt 0.325777 0.000000
vt 0.415757 0.358343
vt 0.414621 0.358343
vt 0.414621 0.331569
vt 0.415757 0.331569
vt 0.121310 0.717463
vt 0.121310 0.687492
vt 0.579520 0.938740
vt 0.578187 0.938740
vt 0.578187 0.196964
vt 0.579520 0.196964
vt 0.735420 0.942861
vt 0.732033 0.942861
vt 0.732033 0.248650
vt 0.735420 0.248650
vt 0.417706 0.198254
vt 0.414622 0.198254
vt 0.414622 0.169116
vt 0.417706 0.169116
vt 0.028902 0.000000
vt 0.028902 0.055315
vt 0.468684 0.396689
vt 0.471768 0.396689
vt 0.417706 0.226019
vt 0.414622 0.226019
vt 0.441909 0.425591
vt 0.441909 0.424455
vt 0.414622 0.112211
vt 0.414622 0.056896
vt 0.441396 0.056896
vt 0.441396 0.112211
vt 0.147481 0.055315
vt 0.147481 0.000000
vt 0.117090 0.055315
vt 0.117090 0.000000
vt 0.118226 0.000000
vt 0.118226 0.055315
vt 0.236452 0.687492
vt 0.236452 0.717463
vt 0.117090 0.717463
vt 0.117090 0.687492
vt 0.118226 0.687492
vt 0.118226 0.717463
vt 0.060193 0.717463
vt 0.060193 0.687492
vt 0.353542 0.424455
vt 0.353542 0.367558
vt 0.059113 0.053972
vt 0.059113 0.000000
vt 0.060193 0.000000
vt 0.060193 0.053972
vt 0.059113 0.717463
vt 0.059113 0.687492
vt 0.233368 0.053972
vt 0.233368 0.000000
vt 0.236452 0.000000
vt 0.236452 0.053972
vt 0.415739 0.424455
vt 0.415739 0.425591
vt 0.412655 0.425591
vt 0.412655 0.424455
vt 0.415739 0.366478
vt 0.415739 0.367558
vt 0.412655 0.367558
vt 0.412655 0.366478
vt 0.121310 0.000000
vt 0.121310 0.055315
vt 0.414621 0.056897
vt 0.414621 0.029132
vt 0.469936 0.029132
vt 0.469936 0.056897
vt 0.415757 0.305398
vt 0.414621 0.305398
vt 0.803429 0.929574
vt 0.803429 0.243335
vt 0.804663 0.243335
vt 0.804663 0.929574
vt 0.646215 0.950379
vt 0.646215 0.208049
vt 0.649837 0.208049
vt 0.649836 0.950379
vt 0.089324 0.000000
vt 0.089324 0.055315
vt 0.412655 0.396689
vt 0.415739 0.396689
vt 0.414622 0.169116
vt 0.414622 0.141351
vt 0.417706 0.141351
vt 0.417706 0.169116
vt 0.467566 0.112211
vt 0.467566 0.056896
vt 0.414621 0.000000
vt 0.468594 0.000000
vt 0.414622 0.112213
vt 0.417706 0.112213
vt 0.867741 0.935626
vt 0.867741 0.282033
vt 0.868855 0.282033
vt 0.868855 0.935626
vt 0.236452 0.687492
vt 0.239536 0.687492
vt 0.296645 0.687492
vt 0.295565 0.687492
vt 0.295565 0.687492
vt 0.292481 0.687492
vt 0.415758 0.226019
vt 0.416838 0.226019
vt 0.416838 0.278964
vt 0.415758 0.278964
vn 0.0000 0.0000 -1.0000
vn 1.0000 0.0000 0.0000
vn 0.0000 -1.0000 -0.0000
vn 0.0000 0.0000 1.0000
vn 0.0000 1.0000 0.0000
vn -1.0000 0.0000 0.0000
vn 0.0000 1.0000 -0.0011
vn 0.0000 1.0000 -0.0012
vn -0.0001 1.0000 0.0000
usemtl madiera
s off
f 13/1/1 9/2/1 4/3/1 3/4/1
f 17/5/2 18/6/2 2/7/2 1/8/2
f 13/9/3 3/10/3 5/11/3 15/12/3
f 17/13/3 1/14/3 6/15/3 19/16/3
f 1/17/4 2/18/4 14/19/4 10/20/4
f 18/21/5 21/22/5 14/23/5 2/24/5
f 1/14/3 10/25/3 11/26/3 6/15/3
f 37/27/3 13/9/3 15/12/3 39/28/3
f 37/29/1 41/30/1 9/2/1 13/1/1
f 26/31/5 27/32/5 21/22/5 18/21/5
f 23/33/3 17/13/3 19/16/3 24/34/3
f 23/35/2 26/36/2 18/6/2 17/5/2
f 3/37/2 4/38/2 26/36/2 23/35/2
f 3/10/3 23/33/3 24/34/3 5/11/3
f 4/39/5 9/40/5 27/32/5 26/31/5
f 93/41/4 94/42/4 36/43/4 29/44/4
f 94/45/6 100/46/6 33/47/6 36/48/6
f 9/40/5 41/49/5 47/50/5 27/32/5
f 27/32/5 47/50/5 46/51/5 21/22/5
f 10/20/4 14/19/4 38/52/4 42/53/4
f 21/22/5 46/51/5 38/54/5 14/23/5
f 10/25/3 42/55/3 43/56/3 11/26/3
f 59/57/6 60/58/6 57/59/6 58/60/6
f 37/29/1 63/61/1 64/62/1 41/30/1
f 69/63/6 61/64/6 62/65/6 70/66/6
f 37/27/3 39/28/3 65/67/3 63/68/3
f 69/69/3 71/70/3 66/71/3 61/72/3
f 61/73/4 42/53/4 38/52/4 62/74/4
f 70/75/5 62/76/5 38/54/5 46/51/5
f 61/72/3 66/71/3 43/56/3 42/55/3
f 76/77/5 70/75/5 46/51/5 47/50/5
f 73/78/3 74/79/3 71/70/3 69/69/3
f 73/80/6 69/63/6 70/66/6 76/81/6
f 63/82/6 73/80/6 76/81/6 64/83/6
f 63/68/3 65/67/3 74/79/3 73/78/3
f 64/84/5 76/77/5 47/50/5 41/49/5
f 95/85/4 77/86/4 84/87/4 96/88/4
usemtl metal
f 50/89/2 49/90/2 32/91/2 35/92/2
f 15/93/1 5/94/1 7/95/1 16/96/1
f 19/97/2 6/98/2 8/99/2 20/100/2
f 6/101/4 11/102/4 12/103/4 8/104/4
f 39/105/1 15/93/1 16/96/1 40/106/1
f 45/107/3 22/108/3 12/109/3 44/110/3
f 48/111/3 28/112/3 22/108/3 45/107/3
f 24/113/2 19/97/2 20/100/2 25/114/2
f 28/112/3 25/115/3 20/116/3 22/108/3
f 99/117/2 93/118/2 29/119/2 30/120/2
f 5/121/2 24/113/2 25/114/2 7/122/2
f 100/123/1 99/124/1 30/125/1 33/126/1
f 40/127/3 16/128/3 28/112/3 48/111/3
f 34/129/3 35/130/3 32/131/3 31/132/3
f 33/133/3 30/134/3 29/135/3 36/136/3
f 49/137/4 51/138/4 31/139/4 32/140/4
f 34/141/6 52/142/6 56/143/6 54/144/6
f 51/145/5 52/146/5 60/147/5 59/148/5
f 11/102/4 43/149/4 44/150/4 12/103/4
f 12/151/6 22/152/6 52/153/6 51/154/6
f 22/155/1 20/156/1 50/157/1 52/158/1
f 8/104/4 12/103/4 51/138/4 49/137/4
f 20/100/2 8/99/2 49/90/2 50/89/2
f 56/159/7 55/160/7 93/161/7 94/162/7
f 50/89/2 35/92/2 53/163/2 55/164/2
f 35/130/3 34/129/3 54/165/3 53/166/3
f 52/167/5 50/168/5 55/160/5 56/159/5
f 34/129/3 31/132/3 58/169/3 57/170/3
f 52/171/1 34/172/1 57/173/1 60/174/1
f 31/139/4 51/138/4 59/175/4 58/176/4
f 86/177/6 83/178/6 80/179/6 85/180/6
f 39/105/1 40/106/1 67/181/1 65/182/1
f 71/183/6 72/184/6 68/185/6 66/186/6
f 66/186/4 68/185/4 44/150/4 43/149/4
f 74/187/6 75/188/6 72/184/6 71/183/6
f 48/111/3 45/107/3 72/189/3 75/190/3
f 97/191/6 78/192/6 77/193/6 95/194/6
f 65/195/6 67/196/6 75/188/6 74/187/6
f 98/197/1 81/198/1 78/199/1 97/200/1
f 82/201/3 79/202/3 80/203/3 83/204/3
f 81/205/3 84/206/3 77/207/3 78/208/3
f 85/180/4 80/179/4 79/209/4 87/210/4
f 82/211/2 90/212/2 92/213/2 88/214/2
f 87/215/5 59/148/5 60/147/5 88/216/5
f 84/206/3 81/205/3 33/133/3 36/136/3
f 44/217/2 87/218/2 88/219/2 45/220/2
f 45/221/1 88/222/1 86/223/1 72/224/1
f 68/185/4 85/180/4 87/210/4 44/150/4
f 72/184/6 86/177/6 85/180/6 68/185/6
f 89/225/6 91/226/6 95/194/6 77/193/6
f 86/177/6 91/226/6 89/225/6 83/178/6
f 83/204/3 89/227/3 90/228/3 82/201/3
f 88/229/5 92/230/5 91/231/5 86/232/5
f 82/201/3 57/170/3 58/169/3 79/202/3
f 88/233/1 60/174/1 57/173/1 82/234/1
f 79/209/4 58/176/4 59/175/4 87/210/4
f 55/164/2 53/163/2 29/119/2 93/118/2
f 92/213/2 90/212/2 84/235/2 96/236/2
f 90/228/3 89/227/3 77/207/3 84/206/3
f 54/144/6 56/143/6 94/45/6 36/48/6
f 53/166/3 54/165/3 36/136/3 29/135/3
f 91/231/8 92/230/8 96/237/8 95/238/8
f 48/239/2 96/240/2 98/241/2 40/242/2
f 75/243/4 95/85/4 96/88/4 48/244/4
f 40/106/1 98/197/1 97/200/1 67/181/1
f 67/196/6 97/191/6 95/194/6 75/188/6
f 28/245/6 16/246/6 100/46/6 94/45/6
f 25/247/4 28/248/4 94/42/4 93/41/4
f 16/96/1 7/95/1 99/124/1 100/123/1
f 7/122/2 25/114/2 93/118/2 99/117/2
f 81/198/1 98/197/1 100/123/1 33/126/1
f 96/88/4 84/87/4 36/43/4 94/42/4
f 98/249/9 96/250/9 94/251/9 100/252/9
